# xmcd
#
# Track frame offsets: 
#        150
#        22094
#        52939
#        77479
#        99423
#        116500
#        137321
#        163730
#        185168
#        205652
#        225479
#        246796
#
# Disc length: 3650 seconds
#
# Revision: 1
# Processed by: cddbd v1.5.2PL0 Copyright (c) Steve Scherf et al.
# Submitted via: ExactAudioCopy v1.0b4
#
DISCID=910e400c
DTITLE=Jaromi - Polski blues standards
DYEAR=2005
DGENRE=Blues
TTITLE0=01.Kiedy byłem małym chłopcem
TTITLE1=02.Szósta rano na trasie
TTITLE2=03.Straight blues
TTITLE3=04.Blues córek naszych
TTITLE4=05.W tym miescie trudno jest zyc
TTITLE5=06.Miej nas w opiece Sw.McDonaldzie
TTITLE6=07.Blues Kubusia Puchatka
TTITLE7=08.Niech żyje wojna
TTITLE8=09.Blues o skrzynce pocztowej
TTITLE9=10.Jak się czujesz ze mną w łóżku
TTITLE10=11.Double trouble blues
TTITLE11=12.Idzie dysc
EXTD=
EXTT0=
EXTT1=
EXTT2=
EXTT3=
EXTT4=
EXTT5=
EXTT6=
EXTT7=
EXTT8=
EXTT9=
EXTT10=
EXTT11=
PLAYORDER=
